Results
version=1
nRows=4
nColumns=155
inDegrees=yes
endheader
time	ground_pelvis/pelvis_tilt/value	ground_pelvis/pelvis_tilt/speed	ground_pelvis/pelvis_list/value	ground_pelvis/pelvis_list/speed	ground_pelvis/pelvis_rotation/value	ground_pelvis/pelvis_rotation/speed	ground_pelvis/pelvis_tx/value	ground_pelvis/pelvis_tx/speed	ground_pelvis/pelvis_ty/value	ground_pelvis/pelvis_ty/speed	ground_pelvis/pelvis_tz/value	ground_pelvis/pelvis_tz/speed	hip_r/hip_flexion_r/value	hip_r/hip_flexion_r/speed	hip_r/hip_adduction_r/value	hip_r/hip_adduction_r/speed	hip_r/hip_rotation_r/value	hip_r/hip_rotation_r/speed	knee_r/knee_angle_r/value	knee_r/knee_angle_r/speed	ankle_r/ankle_angle_r/value	ankle_r/ankle_angle_r/speed	subtalar_r/subtalar_angle_r/value	subtalar_r/subtalar_angle_r/speed	mtp_r/mtp_angle_r/value	mtp_r/mtp_angle_r/speed	hip_l/hip_flexion_l/value	hip_l/hip_flexion_l/speed	hip_l/hip_adduction_l/value	hip_l/hip_adduction_l/speed	hip_l/hip_rotation_l/value	hip_l/hip_rotation_l/speed	knee_l/knee_angle_l/value	knee_l/knee_angle_l/speed	ankle_l/ankle_angle_l/value	ankle_l/ankle_angle_l/speed	subtalar_l/subtalar_angle_l/value	subtalar_l/subtalar_angle_l/speed	mtp_l/mtp_angle_l/value	mtp_l/mtp_angle_l/speed	back/lumbar_extension/value	back/lumbar_extension/speed	back/lumbar_bending/value	back/lumbar_bending/speed	back/lumbar_rotation/value	back/lumbar_rotation/speed	glut_med1_r/activation	glut_med1_r/fiber_length	glut_med2_r/activation	glut_med2_r/fiber_length	glut_med3_r/activation	glut_med3_r/fiber_length	bifemlh_r/activation	bifemlh_r/fiber_length	bifemsh_r/activation	bifemsh_r/fiber_length	sar_r/activation	sar_r/fiber_length	add_mag2_r/activation	add_mag2_r/fiber_length	tfl_r/activation	tfl_r/fiber_length	pect_r/activation	pect_r/fiber_length	grac_r/activation	grac_r/fiber_length	glut_max1_r/activation	glut_max1_r/fiber_length	glut_max2_r/activation	glut_max2_r/fiber_length	glut_max3_r/activation	glut_max3_r/fiber_length	iliacus_r/activation	iliacus_r/fiber_length	psoas_r/activation	psoas_r/fiber_length	quad_fem_r/activation	quad_fem_r/fiber_length	gem_r/activation	gem_r/fiber_length	peri_r/activation	peri_r/fiber_length	rect_fem_r/activation	rect_fem_r/fiber_length	vas_int_r/activation	vas_int_r/fiber_length	med_gas_r/activation	med_gas_r/fiber_length	soleus_r/activation	soleus_r/fiber_length	tib_post_r/activation	tib_post_r/fiber_length	tib_ant_r/activation	tib_ant_r/fiber_length	glut_med1_l/activation	glut_med1_l/fiber_length	glut_med2_l/activation	glut_med2_l/fiber_length	glut_med3_l/activation	glut_med3_l/fiber_length	bifemlh_l/activation	bifemlh_l/fiber_length	bifemsh_l/activation	bifemsh_l/fiber_length	sar_l/activation	sar_l/fiber_length	add_mag2_l/activation	add_mag2_l/fiber_length	tfl_l/activation	tfl_l/fiber_length	pect_l/activation	pect_l/fiber_length	grac_l/activation	grac_l/fiber_length	glut_max1_l/activation	glut_max1_l/fiber_length	glut_max2_l/activation	glut_max2_l/fiber_length	glut_max3_l/activation	glut_max3_l/fiber_length	iliacus_l/activation	iliacus_l/fiber_length	psoas_l/activation	psoas_l/fiber_length	quad_fem_l/activation	quad_fem_l/fiber_length	gem_l/activation	gem_l/fiber_length	peri_l/activation	peri_l/fiber_length	rect_fem_l/activation	rect_fem_l/fiber_length	vas_int_l/activation	vas_int_l/fiber_length	med_gas_l/activation	med_gas_l/fiber_length	soleus_l/activation	soleus_l/fiber_length	tib_post_l/activation	tib_post_l/fiber_length	tib_ant_l/activation	tib_ant_l/fiber_length	ercspn_r/activation	ercspn_r/fiber_length	ercspn_l/activation	ercspn_l/fiber_length	intobl_r/activation	intobl_r/fiber_length	intobl_l/activation	intobl_l/fiber_length	extobl_r/activation	extobl_r/fiber_length	extobl_l/activation	extobl_l/fiber_length
      1.09784911787304517716	      4.75003791902860328378	     -6.78912039737632078129	     -2.08702176450118948026	    -33.98614227758570649485	     -1.12968098516741699555	    -16.09876571369108333442	      0.58121163972601597170	     -0.09355371447748742075	      1.03943265519478256209	     -0.14584029034192896868	      0.05303797700217233874	      0.01656065966330217548	    -11.15015680179838142294	    -82.70389892745454574197	      4.27025316930263976190	     32.70725258127211532155	     -1.97997872537785069014	     36.34929064940526188821	     -6.92604205874482037331	     40.72575786206934367328	     10.12205182442140483090	     31.83672174638295970794	     -0.03327317322109547143	     -3.71273986164987190861	     -0.28689853515732954836	      1.08648566510045663236	     20.28575856106305153048	    -10.36720395368806180159	     -5.54018326757696399909	    -21.99807436335817456552	     -9.69574644385453687789	    -33.03091223218151384344	    -26.91625910637581498008	    359.99125978257694669082	     -0.58139607076280952480	    -32.00075242346283488359	      0.01013884873776348117	      0.53503508252464793138	      0.44439557949877461773	     -4.93674543939210064281	    -16.84786392270443400321	      1.67715084930352453796	      2.42777109943810076587	     26.13916250330639456934	      3.05921853150783906727	     17.83422636997149979265	      0.39565122972333888196	      0.04576281387418065089	      0.23790530506678647660	      0.07945348946222866027	      0.14738806756318437174	      0.05957417267236800318	      0.05872613059661646595	      0.08906238583407605214	      0.13039723757911139690	      0.18563177139954550876	      0.04089948501943910242	      0.52686880768388044682	      0.01999999999999999695	      0.07650260401838479551	      0.03707247875539260162	      0.12937198461544902051	      0.01999999999999999695	      0.08111618957811207731	      0.01999999999999999695	      0.34842671397473090611	      0.04549603733573127917	      0.07149789201537505579	      0.03484444804367344689	      0.07683480171273725234	      0.02119208392592196802	      0.07815025981309844938	      0.08819622978940512559	      0.12051527045189881771	      0.10935353537904424215	      0.11221503056968795686	      0.02020867020021340985	      0.04578600798497810959	      0.01999999999999999695	      0.02530488029132845970	      0.05143628097411019617	      0.01980639002959228359	      0.02509294644162495327	      0.12718748925521586313	      0.02883858165612114902	      0.08244047284014949240	      0.54543291643899172172	      0.09083787114389349493	      0.05494148010740226851	      0.05177988179959853998	      0.11318176752663720863	      0.03390633699490958747	      0.08034265515918413703	      0.07181012049221972837	      0.04654481543334964416	      0.05251778766035409413	      0.06527361367698197858	      0.08760717338914648933	      0.10832475083996344345	      0.06624431505291770994	      0.02181383746099660459	      0.11253634141787642597	      0.09502514505353609753	      0.17656412764018117323	      0.07004661612307086505	      0.49014676777182220047	      0.04726442790301099012	      0.09824063710513214476	      0.08308012832785389989	      0.10735171237569718361	      0.02650168444425419004	      0.07405611058664408886	      0.02665311751034351445	      0.35082957312143420170	      0.02259928407536262659	      0.09319547171189390689	      0.01999999999999999695	      0.10530317483754696173	      0.01999999999999999695	      0.12591464423979820131	      0.11481495280845072093	      0.09905248586787145093	      0.11200073113798734992	      0.09092393958616276639	      0.02872417745486314719	      0.04505439766944622365	      0.05316243558228430505	      0.02122143255658346522	      0.07664000350460306588	      0.01966928248184494216	      0.15635549988480512695	      0.11833766186128086284	      0.01999999999999999695	      0.09907062479199899019	      0.01999999999999999695	      0.08020056257973587344	      0.01999999999999999695	      0.04568767551505935332	      0.01999999999999999695	      0.03385697355465281527	      0.04648421721757738795	      0.07935264977348097104	      0.13113752487694713134	      0.13667321812603228093	      0.18107024079374753334	      0.14099071652025443879	      0.02175198014150200518	      0.08662602707301018945	      0.06655281570867446761	      0.09021915303518507345	      0.01999999999999999695	      0.11386355306603439252	      0.02112820768771434682	      0.12339219665846844209
      1.09883227271993444418	      4.74334977765697107799	     -6.81462555448712592465	     -2.12043801062645353994	    -33.99002799605774782776	     -1.14557706351506483067	    -16.23768929854721321249	      0.58112001010392599909	     -0.09284340552102075816	      1.03928853101597984399	     -0.14734171901167525398	      0.05305393443579157348	      0.01590007005825517378	    -11.23141503677961061669	    -82.59913533361556403634	      4.30235682100897598445	     32.59832273950648584560	     -1.94412005263507126074	     36.59341445577847906634	     -6.88620875152334388503	     40.30631683343910509620	     10.15367953150133573104	     32.51352336816896837490	     -0.03676969673290293034	     -3.38201507856058158907	     -0.28670913174713480442	     -0.74920339595541485256	     20.27540522183250715216	    -10.69546117129242013277	     -5.56161020700593944355	    -21.58903675771713182030	     -9.72753758002601287558	    -31.63766301933963731585	    -26.56246494628025800466	    359.71703430223124087206	     -0.61273571970170226386	    -31.76713918893690546952	      0.01067732273927530368	      0.54854864314559681482	      0.43947854491125276644	     -5.00425105928550539858	    -16.84619447139947112646	      1.71710816710386282580	      2.45343945606587565678	     26.07554344001957602472	      3.07674713684060208152	     17.82294839877176073628	      0.39642851571719994741	      0.04575600305300323717	      0.23781534208291096877	      0.07945124757519145264	      0.14586549471370771625	      0.05957993135090924874	      0.05819944086915974230	      0.08901736488533441849	      0.13087585088464570582	      0.18564508104492533080	      0.04108126850920992140	      0.52693061171582200597	      0.01999999999999999695	      0.07645875886315477155	      0.03687066519036907852	      0.12942680283241767003	      0.01999999999999999695	      0.08113169014507599919	      0.01999999999999999695	      0.34843198780722572927	      0.04517029348871663685	      0.07145746920272773306	      0.03464436371239470319	      0.07676679395501574688	      0.02117660421754380060	      0.07802411607958555095	      0.08951976569534048078	      0.12055617239569346721	      0.11084859839856422981	      0.11224484596419402604	      0.02020596794937012247	      0.04580277306051132313	      0.01999999999999999695	      0.02531690978962994679	      0.05102501931039573474	      0.01982461560757734290	      0.02502609427724877475	      0.12721437957522752082	      0.02872136635789794903	      0.08240917471663986027	      0.54405388820464761768	      0.09087205747808294043	      0.05514790537702828760	      0.05179671053333819580	      0.11395534337017539095	      0.03390860559541468422	      0.08055630442557903947	      0.07178754284448016221	      0.04715244525807581188	      0.05251954201486964957	      0.06461368356822222436	      0.08759536054432280616	      0.10690047750330523846	      0.06621965315779235195	      0.02184586657496150400	      0.11272954195965884105	      0.09614726271668665170	      0.17673082252868602127	      0.06930850602229347845	      0.49019541840257541132	      0.04796674170618243221	      0.09824434509097323964	      0.08218099724358354785	      0.10731077511701378469	      0.02646871650989037969	      0.07407400263886418368	      0.02678832413460820877	      0.35102898175764535305	      0.02256539905770567345	      0.09317518412656469740	      0.01999999999999999695	      0.10528229750595420600	      0.01999999999999999695	      0.12590698478112297143	      0.11336762118072163386	      0.09907397860061900596	      0.11056995982888281893	      0.09094879233466585111	      0.02860851542224824434	      0.04503451777220473379	      0.05275005284066342642	      0.02119642018171948722	      0.07582114365311753978	      0.01964390371113651501	      0.15395746656601216884	      0.11806828177795938850	      0.01999999999999999695	      0.09878624813480345324	      0.01999999999999999695	      0.08031736556059497489	      0.01999999999999999695	      0.04566325603785170717	      0.01999999999999999695	      0.03385155399948458488	      0.04641323774943143660	      0.07937712372452598864	      0.13081561652619286273	      0.13665094146222322991	      0.18119858336504460206	      0.14100906578071359387	      0.02172919448485110053	      0.08659395537018489686	      0.06677809721325986270	      0.09025222025300622120	      0.01999999999999999695	      0.11382517563632252311	      0.02111356004432891204	      0.12343554194786170164
      1.09981542756682371120	      4.73664288696393054323	     -6.82638170591423065758	     -2.15385406617415808839	    -33.98617694907362363210	     -1.16160846531982930863	    -16.37372728441800262544	      0.58102908579721168625	     -0.09211823818154914190	      1.03914294827176534319	     -0.14880583148355638889	      0.05306923958420207976	      0.01523340825244713648	    -11.31257831146574410752	    -82.51231053640768209334	      4.33434810313632201684	     32.47918341119434870734	     -1.90803166973181226318	     36.81618506492761611071	     -6.84678504096631979081	     39.89386785382781397402	     10.18600578238232223782	     33.25822889865376197349	     -0.03988616241699774467	     -2.93834814269487631933	     -0.28847153717391743610	     -2.88901023956404623405	     20.26472314846962419210	    -11.03732360501168052735	     -5.58263214606816049468	    -21.17461801981880142876	     -9.75795065715401044315	    -30.22799271930370323958	    -26.20894804032175073871	    359.42863839997721697728	     -0.64389153389584929954	    -31.62765113942791828094	      0.01119353829435213755	      0.49001479175722967296	      0.43468603209596484716	     -4.67911274733230797551	    -16.84449251921508050600	      1.74234159979037395161	      2.47904070753749694589	     26.00317747494363374017	      3.09426266808577299372	     17.80746927925607181464	      0.39713830840676372924	      0.04574926242997556791	      0.23772726739856983591	      0.07944914318129468744	      0.14437428212042685560	      0.05958604192876267025	      0.05768099181900289418	      0.08897266156305602691	      0.13129103948187684225	      0.18565844294043154505	      0.04123379091614299413	      0.52699263129799900351	      0.01999999999999999695	      0.07641512741327358138	      0.03667169515949480346	      0.12948141163249027308	      0.01999999999999999695	      0.08114719000942412219	      0.01999999999999999695	      0.34843729541117912651	      0.04484933806999501921	      0.07141726734313007252	      0.03444708208824037027	      0.07669897869009224822	      0.02116132617810763047	      0.07789833737394588620	      0.09064996052798549031	      0.12059871955768769469	      0.11213450708467544159	      0.11227667231170260220	      0.02020330071243224557	      0.04581976240250109494	      0.01999999999999999695	      0.02532904996272750467	      0.05061997475114840550	      0.01984313138889945427	      0.02496013178641269536	      0.12724133932259479307	      0.02860574247963905414	      0.08237812917722456274	      0.54272081694965024212	      0.09090716799761119904	      0.05532219677945460212	      0.05181371315324274224	      0.11462239805021708083	      0.03391081906886810743	      0.08073857556319419260	      0.07176477113810571240	      0.04766316753226619574	      0.05252113855649981344	      0.06396443390054906697	      0.08758337382095746082	      0.10550361750547655737	      0.06619529455462674905	      0.02187249623641947249	      0.11292266910937424906	      0.09710821688055679135	      0.17689554362851306335	      0.06858259299708673040	      0.49024441416317376952	      0.04855713072268500602	      0.09824848117824423743	      0.08129743273924949776	      0.10726985964970434106	      0.02643618597810104554	      0.07409177980967336652	      0.02690099311909769156	      0.35122769950499505009	      0.02253195891724301889	      0.09315487042763392900	      0.01999999999999999695	      0.10526141684905868101	      0.01999999999999999695	      0.12589902659490670445	      0.11194849128512503189	      0.09909551324303489395	      0.10916689966192109906	      0.09097367601370086321	      0.02849442277165141132	      0.04501558043277615467	      0.05234392921123668524	      0.02117223619480666091	      0.07501614254803418147	      0.01961888954883390587	      0.15161356318606564186	      0.11779827350716273737	      0.01999999999999999695	      0.09850194131619487148	      0.01999999999999999695	      0.08043487619879571837	      0.01999999999999999695	      0.04563887477600494375	      0.01999999999999999695	      0.03384610511867885974	      0.04634325810269187412	      0.07940145963430511600	      0.13049938739930980192	      0.13662865709365473732	      0.18131154891787140682	      0.14102736207583152495	      0.02170670659504632047	      0.08656192301404622147	      0.06696923884733180232	      0.09028566967086243400	      0.01999999999999999695	      0.11378687520771736674	      0.02109910316257334120	      0.12347888619615640660
      1.10000000000000031086	      4.73538286878707381788	     -6.82688805117209618345	     -2.16012686866370939853	    -33.98497399194571499947	     -1.16463290098710459120	    -16.39858203562306826484	      0.58101209602946635169	     -0.09198030397088158283	      1.03911545782574687991	     -0.14907638151293062245	      0.05307203960823082822	      0.01510719059468628930	    -11.32780651821331652229	    -82.49847224839788850659	      4.34034074499029465244	     32.45617933646209962717	     -1.90123279489349239491	     36.85529020280682033217	     -6.83942875955145179745	     39.81781521057035888589	     10.19215791245041913271	     33.40576378214787212073	     -0.04041967508170882240	     -2.84201778561855933347	     -0.28904499115293197375	     -3.32679574344069850511	     20.26267991688861158650	    -11.10294207471770633333	     -5.58653319886359689406	    -21.09661361246223165722	     -9.76350531783328712265	    -29.96141230061838811594	    -26.14261261222446464103	    359.37232540787789503156	     -0.64972757054660013054	    -31.61133279935386397597	      0.01128232741491919620	      0.47170598812638858677	      0.43383177825165603059	     -4.57511750192669364168	    -16.84417065058524443089	      1.74526981445448936547	      2.48383888220262871727	     25.98912128139717125919	      3.09754910605562105985	     17.80385881436082229357	      0.39726453162546671027	      0.04574800459198339470	      0.23771093995360334516	      0.07944876265130623727	      0.14409775986576436879	      0.05958722643527097212	      0.05758456748839715228	      0.08896430224125749520	      0.13136262473168841547	      0.18566095765741871815	      0.04125956038256720082	      0.52700429170510432186	      0.01999999999999999695	      0.07640696151041824480	      0.03663465507051350684	      0.12949163977124575342	      0.01999999999999999695	      0.08115010071228812016	      0.01999999999999999695	      0.34843829640119539093	      0.04478961105489635830	      0.07140974360996438230	      0.03441035449001839802	      0.07668626810686794693	      0.02115848022599906356	      0.07787476497922536656	      0.09084302559677397138	      0.12060686816824148226	      0.11235513732464226522	      0.11228287539241256499	      0.02020280384575159557	      0.04582297686752104943	      0.01999999999999999695	      0.02533134108213006691	      0.05054461826628447313	      0.01984663572747498092	      0.02494784652583280360	      0.12724640893218011617	      0.02858421143286250798	      0.08237232974678752873	      0.54247554077633253211	      0.09091386052319949673	      0.05535175721324925302	      0.05181693265035022117	      0.11473700251361161617	      0.03391123011959824851	      0.08076968440768829416	      0.07176047453422366995	      0.04774956237658398855	      0.05252142198612931578	      0.06384372124677108185	      0.08758110437348962107	      0.10524437977575915037	      0.06619075623481611437	      0.02187697034105504784	      0.11295890860755905538	      0.09727264603390309294	      0.17692689701129737934	      0.06844765407585913508	      0.49025365173938895147	      0.04865701403585706575	      0.09824930981204095526	      0.08113326574264428936	      0.10726218074000282154	      0.02643012714983060743	      0.07409510428775951951	      0.02691994979908869656	      0.35126489940385330346	      0.02252573015365479450	      0.09315105424491906816	      0.01999999999999999695	      0.10525749678849179169	      0.01999999999999999695	      0.12589749957148488324	      0.11168515845414730969	      0.09909956002988135060	      0.10890653030087929509	      0.09097835069322553203	      0.02847317676022701610	      0.04501213114221310624	      0.05226837474258601984	      0.02116778911063304028	      0.07486653787980102059	      0.01961423509443008251	      0.15117943315288687178	      0.11774751767466101748	      0.01999999999999999695	      0.09844857726822547894	      0.01999999999999999695	      0.08045700990435812605	      0.01999999999999999695	      0.04563430235466462564	      0.01999999999999999695	      0.03384507914072193424	      0.04633023077591156419	      0.07940601315496854939	      0.13044064457126613998	      0.13662447382248363303	      0.18133119622321611231	      0.14103079066270726716	      0.02170251771197248894	      0.08655591572834019087	      0.06700175329914087596	      0.09029198681664586668	      0.01999999999999999695	      0.11377969425269958414	      0.02109641016613276326	      0.12348702138322291411
